<svg width="1438" height="117" viewBox="0 0 1438 117" fill="none" xmlns="http://www.w3.org/2000/svg">
<path d="M645.94 33.5234C645.367 33.5234 644.781 33.4844 644.182 33.4063C642.541 33.1979 641.33 32.7161 640.549 31.9609C639.794 31.2057 639.416 30.3854 639.416 29.5C639.416 28.5365 639.846 27.6641 640.705 26.8828C641.565 26.0755 642.776 25.6719 644.338 25.6719C645.38 25.6719 646.513 25.8802 647.737 26.2969C648.414 26.5312 649.221 26.9219 650.159 27.4687C651.096 28.0156 652.177 28.5885 653.401 29.1875C654.703 27.9375 655.888 26.388 656.955 24.5391C658.049 22.6901 659.13 20.7109 660.198 18.6016C661.291 16.4661 662.463 14.3307 663.713 12.1953C664.989 10.0599 666.461 8.05469 668.127 6.17969L670.393 3.64062C669.429 3.48437 668.427 3.36719 667.385 3.28906C666.343 3.1849 665.263 3.13281 664.143 3.13281C662.737 3.13281 661.291 3.21094 659.807 3.36719C658.323 3.49739 656.838 3.71875 655.354 4.03125C652.906 4.55208 650.836 5.38542 649.143 6.53125C647.45 7.67708 646.161 8.92708 645.276 10.2812C644.416 11.6094 643.987 12.8594 643.987 14.0312C643.987 14.8385 644.208 15.5677 644.651 16.2187C645.12 16.8437 645.81 17.2995 646.721 17.5859C647.294 17.7682 647.88 17.8594 648.479 17.8594C649.364 17.8594 650.146 17.6771 650.823 17.3125C651.5 16.9479 652.073 16.5052 652.541 15.9844C653.01 15.4375 653.349 14.9167 653.557 14.4219C653.791 13.9271 653.896 13.5625 653.87 13.3281C653.87 13.1458 654 13.0547 654.26 13.0547C654.521 13.0547 654.651 13.25 654.651 13.6406V13.6797C654.651 14.7474 654.325 15.6719 653.674 16.4531C653.023 17.2344 652.203 17.8333 651.213 18.25C650.25 18.6667 649.273 18.875 648.284 18.875C647.659 18.875 647.008 18.7708 646.33 18.5625C644.924 18.0677 643.883 17.3516 643.205 16.4141C642.528 15.4505 642.19 14.3958 642.19 13.25C642.19 12.1823 642.476 11.0885 643.049 9.96875C643.648 8.82292 644.521 7.74219 645.666 6.72656C646.812 5.68489 648.232 4.78646 649.924 4.03125C651.643 3.27604 653.622 2.74219 655.862 2.42969C657.06 2.24739 658.245 2.11719 659.416 2.03906C660.588 1.96094 661.721 1.92187 662.815 1.92187C664.325 1.92187 665.797 2 667.229 2.15625C668.687 2.28646 670.054 2.49479 671.33 2.78125C671.695 2.46875 672.06 2.19531 672.424 1.96094C672.815 1.72656 673.166 1.54427 673.479 1.41406C673.661 1.33594 673.817 1.28385 673.948 1.25781C674.078 1.23177 674.182 1.21875 674.26 1.21875C674.416 1.21875 674.495 1.27083 674.495 1.375C674.495 1.50521 674.299 1.71354 673.909 2C673.648 2.18229 673.401 2.39062 673.166 2.625C672.932 2.83333 672.789 2.98958 672.737 3.09375C675.393 3.77083 677.541 4.70833 679.182 5.90625C680.849 7.07812 681.682 8.47135 681.682 10.0859C681.682 10.9193 681.409 11.8307 680.862 12.8203C680.289 13.7839 679.495 14.5651 678.479 15.1641C677.463 15.737 676.383 16.1667 675.237 16.4531C674.091 16.7135 673.023 16.8698 672.034 16.9219C672.893 17.1823 673.83 17.5729 674.846 18.0937C675.888 18.5885 676.838 19.2005 677.698 19.9297C678.583 20.6589 679.169 21.5182 679.455 22.5078C679.638 23.1328 679.729 23.7708 679.729 24.4219C679.729 25.8021 679.325 27.0521 678.518 28.1719C677.737 29.2917 676.682 30.2552 675.354 31.0625C674.052 31.8437 672.62 32.4427 671.057 32.8594C669.495 33.3021 667.945 33.5234 666.409 33.5234C665.836 33.5234 665.25 33.4844 664.651 33.4063C662.151 33.0938 660.08 32.7031 658.44 32.2344C656.825 31.7656 655.406 31.2448 654.182 30.6719C651.656 32.5729 648.909 33.5234 645.94 33.5234ZM665.862 32.3906C667.476 32.3906 668.948 32.1432 670.276 31.6484C671.604 31.1536 672.75 30.5026 673.713 29.6953C674.703 28.888 675.458 27.9896 675.979 27C676.526 26.0104 676.799 25.0339 676.799 24.0703C676.799 23.1589 676.526 22.2734 675.979 21.4141C675.432 20.5547 674.573 19.8385 673.401 19.2656C672.385 18.7708 671.33 18.3672 670.237 18.0547C669.169 17.7161 668.245 17.4297 667.463 17.1953C666.682 16.9349 666.226 16.6745 666.096 16.4141C666.096 16.1016 666.226 15.8932 666.487 15.7891C666.773 15.6589 667.138 15.5937 667.58 15.5937C668.101 15.5937 668.726 15.6328 669.455 15.7109C670.185 15.7891 670.953 15.8281 671.76 15.8281C672.593 15.8281 673.44 15.6458 674.299 15.2812C675.185 14.8906 675.992 14.3828 676.721 13.7578C677.45 13.1068 678.036 12.4036 678.479 11.6484C678.948 10.8672 679.182 10.0729 679.182 9.26562C679.182 8.53646 678.935 7.82031 678.44 7.11719C677.945 6.41406 677.125 5.80208 675.979 5.28125C674.833 4.76042 673.596 4.34375 672.268 4.03125C670.966 5.82812 669.664 7.84635 668.362 10.0859C667.06 12.2995 665.758 14.5521 664.455 16.8437C663.153 19.1094 661.838 21.2578 660.51 23.2891C659.182 25.3203 657.854 27.0651 656.526 28.5234C656.213 28.862 655.966 29.1224 655.784 29.3047C655.601 29.4609 655.354 29.6823 655.041 29.9687C656.265 30.4635 657.659 30.9323 659.221 31.375C660.784 31.8177 662.567 32.1302 664.573 32.3125C664.781 32.3385 664.989 32.3516 665.198 32.3516C665.432 32.3776 665.653 32.3906 665.862 32.3906ZM645.159 32.3125C646.617 32.3906 647.945 32.2214 649.143 31.8047C650.367 31.362 651.5 30.75 652.541 29.9687C651.63 29.526 650.692 29.0703 649.729 28.6016C648.791 28.1068 647.789 27.6641 646.721 27.2734C645.966 27.013 645.276 26.8828 644.651 26.8828C643.687 26.8828 642.958 27.1432 642.463 27.6641C641.968 28.1589 641.721 28.7318 641.721 29.3828C641.721 30.0599 642.008 30.7109 642.58 31.3359C643.153 31.9349 644.013 32.2604 645.159 32.3125ZM684.841 32.1563C683.878 32.1563 683.005 31.8437 682.224 31.2187C681.469 30.5937 681.091 29.6432 681.091 28.3672C681.091 27.1953 681.378 25.9453 681.951 24.6172C682.523 23.263 683.253 22.0781 684.138 21.0625C684.893 20.1771 685.74 19.4479 686.677 18.875C687.615 18.3021 688.5 18.0156 689.333 18.0156C689.906 18.0156 690.401 18.1719 690.818 18.4844C691.26 18.8229 691.482 19.3047 691.482 19.9297C691.482 20.5807 691.234 21.2969 690.74 22.0781C690.245 22.8594 689.542 23.5885 688.63 24.2656C688.24 24.5521 687.745 24.8255 687.146 25.0859C686.547 25.3464 685.948 25.5677 685.349 25.75C684.75 25.9062 684.255 25.9844 683.865 25.9844C683.734 26.2969 683.604 26.7135 683.474 27.2344C683.37 27.7552 683.318 28.2891 683.318 28.8359C683.318 29.487 683.448 30.0729 683.708 30.5937C683.969 31.1146 684.451 31.375 685.154 31.375C686.013 31.375 686.794 31.1276 687.497 30.6328C688.201 30.138 688.826 29.526 689.372 28.7969C689.919 28.0417 690.375 27.2865 690.74 26.5312C691.13 25.776 691.443 25.138 691.677 24.6172C691.833 24.2526 692.042 24.0703 692.302 24.0703C692.432 24.0703 692.497 24.1354 692.497 24.2656C692.497 24.3698 692.458 24.5 692.38 24.6562C692.016 25.4375 691.625 26.2708 691.208 27.1562C690.792 28.0156 690.297 28.8359 689.724 29.6172C689.151 30.3724 688.461 30.9844 687.654 31.4531C686.872 31.9219 685.935 32.1563 684.841 32.1563ZM684.138 25.2812C684.503 25.2812 685.115 25.151 685.974 24.8906C686.833 24.6042 687.615 24.1615 688.318 23.5625C688.995 22.9635 689.516 22.3125 689.88 21.6094C690.245 20.8802 690.427 20.2682 690.427 19.7734C690.427 19.2005 690.219 18.9141 689.802 18.9141C689.49 18.9141 689.06 19.1224 688.513 19.5391C687.966 19.9557 687.289 20.6589 686.482 21.6484C685.987 22.2734 685.518 22.9505 685.076 23.6797C684.633 24.4089 684.32 24.9427 684.138 25.2812ZM692.656 32.1563C691.379 32.1563 690.468 31.8307 689.921 31.1797C689.4 30.5026 689.14 29.7995 689.14 29.0703C689.14 28.4714 689.283 27.9245 689.57 27.4297C689.882 26.9349 690.247 26.6745 690.663 26.6484C691.184 25.6328 691.744 24.526 692.343 23.3281C692.968 22.1302 693.541 20.9714 694.062 19.8516C694.426 19.0964 694.882 18.3672 695.429 17.6641C696.002 16.9609 696.627 16.5573 697.304 16.4531H697.695C697.903 16.4531 698.085 16.4661 698.241 16.4922C698.424 16.5182 698.606 16.5703 698.788 16.6484C699.075 16.7786 699.218 16.974 699.218 17.2344C699.218 17.3906 699.127 17.4687 698.945 17.4687C698.866 17.4687 698.762 17.4297 698.632 17.3516C698.32 17.2214 698.046 17.1562 697.812 17.1562C697.656 17.1562 697.512 17.1953 697.382 17.2734C696.887 17.5339 696.536 17.8984 696.327 18.3672C696.145 18.8359 696.054 19.3307 696.054 19.8516C696.054 20.2682 696.093 20.6979 696.171 21.1406C696.275 21.5573 696.393 21.9349 696.523 22.2734C696.809 23.0026 697.109 23.7187 697.421 24.4219C697.76 25.125 697.929 25.8802 697.929 26.6875C697.929 27.4687 697.669 28.3021 697.148 29.1875C696.627 30.0469 695.963 30.737 695.156 31.2578L695.429 31.2969C695.559 31.3229 695.65 31.3359 695.702 31.3359C695.754 31.3359 695.794 31.3359 695.82 31.3359C696.419 31.3359 696.978 31.1667 697.499 30.8281C698.046 30.4635 698.528 30.0208 698.945 29.5C699.361 28.9792 699.83 28.25 700.351 27.3125C700.898 26.375 701.419 25.3854 701.913 24.3437C701.991 24.2135 702.083 24.1484 702.187 24.1484C702.317 24.1484 702.408 24.2005 702.46 24.3047C702.538 24.3828 702.551 24.487 702.499 24.6172C702.161 25.3464 701.77 26.1406 701.327 27C700.911 27.8333 700.429 28.6406 699.882 29.4219C699.335 30.1771 698.697 30.8021 697.968 31.2969C697.265 31.7656 696.471 32 695.585 32C695.377 32 695.156 31.987 694.921 31.9609C694.687 31.9349 694.452 31.8828 694.218 31.8047C693.958 31.9089 693.684 31.987 693.398 32.0391C693.137 32.1172 692.89 32.1563 692.656 32.1563ZM693.827 30.9844C694.27 30.6198 694.661 30.0859 694.999 29.3828C695.364 28.6797 695.546 27.7552 695.546 26.6094C695.546 25.5937 695.442 24.513 695.234 23.3672C695.025 22.2214 694.921 21.2057 694.921 20.3203C694.921 20.138 694.921 19.9818 694.921 19.8516C694.947 19.6953 694.973 19.5521 694.999 19.4219C694.661 20.125 694.27 20.9453 693.827 21.8828C693.385 22.7943 692.942 23.6797 692.499 24.5391C692.057 25.3984 691.679 26.1276 691.366 26.7266C691.366 26.7266 691.432 26.7396 691.562 26.7656C691.718 26.7656 691.861 26.8568 691.991 27.0391C692.122 27.1953 692.174 27.5208 692.148 28.0156C692.122 28.6667 692.265 29.2786 692.577 29.8516C692.916 30.3984 693.333 30.776 693.827 30.9844ZM692.343 31.5312C692.499 31.5312 692.643 31.5182 692.773 31.4922C692.903 31.4401 693.02 31.401 693.124 31.375C692.734 31.0885 692.382 30.7109 692.07 30.2422C691.783 29.7474 691.614 29.1224 691.562 28.3672C691.093 28.862 690.859 29.3958 690.859 29.9687C690.859 30.3854 690.989 30.75 691.249 31.0625C691.51 31.375 691.874 31.5312 692.343 31.5312ZM703.704 32C702.975 32 702.324 31.7526 701.751 31.2578C701.178 30.737 700.891 29.9297 700.891 28.8359C700.891 27.9766 701.048 26.9219 701.36 25.6719C701.699 24.3958 702.102 23.0807 702.571 21.7266C703.066 20.3464 703.548 19.0964 704.016 17.9766H701.946C701.764 17.9766 701.673 17.8464 701.673 17.5859C701.673 17.4557 701.699 17.3385 701.751 17.2344C701.829 17.1302 701.933 17.0781 702.063 17.0781H704.407C704.85 16.0885 705.318 15.125 705.813 14.1875C706.308 13.25 706.79 12.3646 707.258 11.5312C707.857 10.4896 708.495 9.70833 709.173 9.1875C709.85 8.66667 710.436 8.40625 710.93 8.40625C711.321 8.40625 711.647 8.5625 711.907 8.875C712.167 9.16146 712.298 9.60417 712.298 10.2031C712.298 10.5677 712.219 11.0755 712.063 11.7266C711.907 12.3516 711.66 13.0156 711.321 13.7187C711.139 14.0833 710.878 14.6042 710.54 15.2812C710.227 15.9583 709.915 16.5573 709.602 17.0781H711.477C711.66 17.0781 711.751 17.2083 711.751 17.4687C711.751 17.5729 711.725 17.6901 711.673 17.8203C711.62 17.9245 711.542 17.9766 711.438 17.9766H709.133C708.482 19.0964 707.74 20.1901 706.907 21.2578C706.074 22.3255 705.084 23.3932 703.938 24.4609C703.86 24.6953 703.756 25.0339 703.626 25.4766C703.522 25.9193 703.417 26.375 703.313 26.8438C703.235 27.2865 703.157 27.6641 703.079 27.9766C703.027 28.2891 703.001 28.4453 703.001 28.4453C702.923 28.7839 702.883 29.0964 702.883 29.3828C702.883 29.9297 703.014 30.3333 703.274 30.5937C703.535 30.8281 703.834 30.9453 704.173 30.9453C704.381 30.9453 704.589 30.9193 704.798 30.8672C705.006 30.7891 705.24 30.6589 705.501 30.4766C706.412 29.8255 707.206 28.9401 707.883 27.8203C708.587 26.7005 709.199 25.6198 709.719 24.5781C709.876 24.2656 710.032 24.1094 710.188 24.1094C710.292 24.1094 710.344 24.1875 710.344 24.3437C710.344 24.4219 710.305 24.5651 710.227 24.7734C709.654 25.9714 709.173 26.9349 708.782 27.6641C708.391 28.3932 708.014 29.0052 707.649 29.5C707.285 29.9687 706.855 30.4375 706.36 30.9062C705.995 31.2708 705.579 31.5443 705.11 31.7266C704.641 31.9089 704.173 32 703.704 32ZM706.79 17.0781H708.782C709.147 16.401 709.485 15.737 709.798 15.0859C710.136 14.4349 710.436 13.7839 710.696 13.1328C710.878 12.7161 711.035 12.2474 711.165 11.7266C711.295 11.2057 711.36 10.8021 711.36 10.5156C711.36 10.125 711.269 9.92969 711.087 9.92969C710.956 9.92969 710.761 10.0469 710.501 10.2812C710.266 10.4896 709.967 10.8542 709.602 11.375C709.133 12.026 708.665 12.8724 708.196 13.9141C707.753 14.9297 707.285 15.9844 706.79 17.0781ZM704.251 23.2109C705.006 22.4297 705.709 21.5964 706.36 20.7109C707.037 19.8255 707.662 18.9141 708.235 17.9766H706.399C705.982 18.9401 705.592 19.8776 705.227 20.7891C704.863 21.7005 704.537 22.5078 704.251 23.2109ZM731.787 35.5938C729.235 35.5938 726.891 35.2161 724.756 34.4609C722.647 33.7057 720.941 32.599 719.639 31.1406C718.337 29.6562 717.621 27.8333 717.49 25.6719C717.438 24.7865 717.582 23.8099 717.92 22.7422C718.259 21.6745 718.727 20.6198 719.326 19.5781C719.951 18.5104 720.681 17.5599 721.514 16.7266C722.373 15.8672 723.285 15.2161 724.248 14.7734C724.326 14.7214 724.444 14.6823 724.6 14.6562C724.782 14.6302 724.912 14.6172 724.99 14.6172C725.147 14.6172 725.225 14.6562 725.225 14.7344C725.225 14.8646 725.029 15.0729 724.639 15.3594C723.545 16.2187 722.647 17.2083 721.944 18.3281C721.214 19.4479 720.668 20.6458 720.303 21.9219C719.938 23.1979 719.756 24.487 719.756 25.7891C719.756 27.3255 720.082 28.6536 720.733 29.7734C721.41 30.8672 722.308 31.7656 723.428 32.4688C724.548 33.1979 725.824 33.7318 727.256 34.0703C728.688 34.4089 730.186 34.5781 731.748 34.5781C733.493 34.5781 735.212 34.3828 736.904 33.9922C738.623 33.6016 740.186 33.0417 741.592 32.3125C743.753 31.1667 745.459 29.7474 746.709 28.0547C747.985 26.362 748.623 24.6823 748.623 23.0156C748.623 22.1302 748.428 21.2839 748.037 20.4766C747.673 19.6693 747.074 18.9401 746.24 18.2891C745.615 17.7943 744.847 17.3255 743.936 16.8828C743.05 16.4401 742.1 16.0104 741.084 15.5937C740.095 15.1771 739.118 14.7604 738.154 14.3437C737.191 13.901 736.345 13.4323 735.615 12.9375C734.574 12.2344 733.806 11.4792 733.311 10.6719C732.842 9.86458 732.608 9.05729 732.608 8.25C732.608 7.28646 732.881 6.34896 733.428 5.4375C734.001 4.52604 734.769 3.70573 735.733 2.97656C736.722 2.22135 737.829 1.63542 739.053 1.21875C740.121 0.854165 741.279 0.567706 742.529 0.359373C743.806 0.15104 745.056 0.0468743 746.279 0.0468743C747.295 0.0468743 748.259 0.124999 749.17 0.281249C750.108 0.411457 750.928 0.658853 751.631 1.02344C752.516 1.4401 753.194 2 753.662 2.70312C754.131 3.38021 754.365 4.09635 754.365 4.85156C754.365 5.89323 753.897 6.80469 752.959 7.58594C752.621 7.84635 752.243 8.09375 751.826 8.32812C751.41 8.53646 750.915 8.71875 750.342 8.875C750.238 8.90104 750.121 8.91406 749.99 8.91406C749.678 8.91406 749.522 8.82292 749.522 8.64062C749.522 8.53646 749.6 8.43229 749.756 8.32812C749.938 8.19792 750.199 8.11979 750.537 8.09375C751.319 7.98958 751.904 7.6901 752.295 7.19531C752.712 6.70052 752.92 6.1276 752.92 5.47656C752.92 4.79948 752.686 4.13542 752.217 3.48437C751.774 2.80729 751.084 2.24739 750.147 1.80469C749.209 1.33594 748.011 1.10156 746.553 1.10156C745.72 1.10156 744.795 1.19271 743.779 1.375C742.79 1.55729 741.709 1.85677 740.537 2.27344C739.105 2.76823 737.907 3.49739 736.944 4.46094C736.006 5.42448 735.537 6.45312 735.537 7.54687C735.537 8.22396 735.759 8.91406 736.201 9.61719C736.67 10.2943 737.412 10.9453 738.428 11.5703C739.287 12.0911 740.264 12.612 741.358 13.1328C742.451 13.6276 743.558 14.1354 744.678 14.6562C745.798 15.151 746.813 15.6849 747.725 16.2578C749.157 17.1432 750.186 18.0937 750.811 19.1094C751.436 20.125 751.748 21.1667 751.748 22.2344C751.748 23.4844 751.371 24.7474 750.615 26.0234C749.886 27.2734 748.923 28.4583 747.725 29.5781C746.527 30.6719 745.212 31.6484 743.779 32.5078C742.113 33.4974 740.225 34.2526 738.115 34.7734C736.032 35.3203 733.923 35.5938 731.787 35.5938ZM757.969 32.1563C757.005 32.1563 756.133 31.8437 755.352 31.2187C754.597 30.5937 754.219 29.6432 754.219 28.3672C754.219 27.1953 754.505 25.9453 755.078 24.6172C755.651 23.263 756.38 22.0781 757.266 21.0625C758.021 20.1771 758.867 19.4479 759.805 18.875C760.742 18.3021 761.628 18.0156 762.461 18.0156C763.034 18.0156 763.529 18.1719 763.946 18.4844C764.388 18.8229 764.61 19.3047 764.61 19.9297C764.61 20.5807 764.362 21.2969 763.867 22.0781C763.373 22.8594 762.669 23.5885 761.758 24.2656C761.367 24.5521 760.873 24.8255 760.274 25.0859C759.675 25.3464 759.076 25.5677 758.477 25.75C757.878 25.9062 757.383 25.9844 756.992 25.9844C756.862 26.2969 756.732 26.7135 756.602 27.2344C756.498 27.7552 756.446 28.2891 756.446 28.8359C756.446 29.487 756.576 30.0729 756.836 30.5937C757.097 31.1146 757.578 31.375 758.281 31.375C759.141 31.375 759.922 31.1276 760.625 30.6328C761.328 30.138 761.953 29.526 762.5 28.7969C763.047 28.0417 763.503 27.2865 763.867 26.5312C764.258 25.776 764.571 25.138 764.805 24.6172C764.961 24.2526 765.169 24.0703 765.43 24.0703C765.56 24.0703 765.625 24.1354 765.625 24.2656C765.625 24.3698 765.586 24.5 765.508 24.6562C765.143 25.4375 764.753 26.2708 764.336 27.1562C763.919 28.0156 763.425 28.8359 762.852 29.6172C762.279 30.3724 761.589 30.9844 760.781 31.4531C760 31.9219 759.063 32.1563 757.969 32.1563ZM757.266 25.2812C757.63 25.2812 758.242 25.151 759.102 24.8906C759.961 24.6042 760.742 24.1615 761.446 23.5625C762.123 22.9635 762.643 22.3125 763.008 21.6094C763.373 20.8802 763.555 20.2682 763.555 19.7734C763.555 19.2005 763.347 18.9141 762.93 18.9141C762.617 18.9141 762.188 19.1224 761.641 19.5391C761.094 19.9557 760.417 20.6589 759.61 21.6484C759.115 22.2734 758.646 22.9505 758.203 23.6797C757.761 24.4089 757.448 24.9427 757.266 25.2812ZM766.838 32.1172C765.744 32.1172 765.002 31.8307 764.611 31.2578C764.221 30.6589 764.025 29.9557 764.025 29.1484C764.025 28.3151 764.143 27.4557 764.377 26.5703C764.611 25.6849 764.82 24.9427 765.002 24.3437C765.419 22.8854 765.94 21.3359 766.565 19.6953C767.216 18.0286 767.919 16.401 768.674 14.8125C769.455 13.1979 770.223 11.7526 770.979 10.4766C771.578 9.46094 772.216 8.70573 772.893 8.21094C773.596 7.6901 774.208 7.42969 774.729 7.42969C775.145 7.42969 775.471 7.58594 775.705 7.89844C775.966 8.1849 776.096 8.6276 776.096 9.22656C776.096 9.64323 776.018 10.138 775.861 10.7109C775.731 11.2839 775.497 11.9349 775.158 12.6641C774.247 14.6953 773.153 16.7266 771.877 18.7578C770.627 20.7891 769.038 22.6901 767.111 24.4609C767.007 24.7995 766.864 25.2031 766.682 25.6719C766.525 26.1146 766.382 26.5703 766.252 27.0391C766.096 27.7422 766.018 28.3411 766.018 28.8359C766.018 29.6432 766.174 30.2552 766.486 30.6719C766.825 31.0625 767.229 31.2578 767.697 31.2578C768.114 31.2578 768.557 31.1146 769.025 30.8281C769.494 30.5156 769.937 30.0729 770.354 29.5C770.979 28.5885 771.538 27.6641 772.033 26.7266C772.554 25.763 772.945 25.0208 773.205 24.5C773.361 24.2135 773.531 24.0703 773.713 24.0703C773.843 24.0703 773.908 24.1484 773.908 24.3047C773.908 24.4349 773.869 24.5781 773.791 24.7344C773.557 25.2552 773.244 25.9323 772.854 26.7656C772.489 27.5729 772.02 28.3932 771.447 29.2266C770.9 30.0339 770.236 30.724 769.455 31.2969C768.7 31.8437 767.828 32.1172 766.838 32.1172ZM767.424 23.2109C768.361 22.2474 769.273 21.1406 770.158 19.8906C771.044 18.6146 771.864 17.2995 772.619 15.9453C773.4 14.5651 774.052 13.263 774.572 12.0391C774.755 11.6484 774.898 11.2187 775.002 10.75C775.132 10.2812 775.197 9.89062 775.197 9.57812C775.197 9.21354 775.106 9.03125 774.924 9.03125C774.82 9.03125 774.663 9.13542 774.455 9.34375C774.247 9.52604 773.973 9.85156 773.635 10.3203C773.14 10.9714 772.593 11.8568 771.994 12.9766C771.421 14.0964 770.835 15.2943 770.236 16.5703C769.637 17.8464 769.091 19.0833 768.596 20.2812C768.101 21.4531 767.71 22.4297 767.424 23.2109ZM775.154 32.1172C774.06 32.1172 773.318 31.8307 772.927 31.2578C772.537 30.6589 772.342 29.9557 772.342 29.1484C772.342 28.3151 772.459 27.4557 772.693 26.5703C772.927 25.6849 773.136 24.9427 773.318 24.3437C773.735 22.8854 774.256 21.3359 774.881 19.6953C775.532 18.0286 776.235 16.401 776.99 14.8125C777.771 13.1979 778.539 11.7526 779.295 10.4766C779.894 9.46094 780.532 8.70573 781.209 8.21094C781.912 7.6901 782.524 7.42969 783.045 7.42969C783.461 7.42969 783.787 7.58594 784.021 7.89844C784.282 8.1849 784.412 8.6276 784.412 9.22656C784.412 9.64323 784.334 10.138 784.177 10.7109C784.047 11.2839 783.813 11.9349 783.474 12.6641C782.563 14.6953 781.469 16.7266 780.193 18.7578C778.943 20.7891 777.355 22.6901 775.427 24.4609C775.323 24.7995 775.18 25.2031 774.998 25.6719C774.842 26.1146 774.698 26.5703 774.568 27.0391C774.412 27.7422 774.334 28.3411 774.334 28.8359C774.334 29.6432 774.49 30.2552 774.802 30.6719C775.141 31.0625 775.545 31.2578 776.013 31.2578C776.43 31.2578 776.873 31.1146 777.342 30.8281C777.81 30.5156 778.253 30.0729 778.67 29.5C779.295 28.5885 779.855 27.6641 780.349 26.7266C780.87 25.763 781.261 25.0208 781.521 24.5C781.677 24.2135 781.847 24.0703 782.029 24.0703C782.159 24.0703 782.224 24.1484 782.224 24.3047C782.224 24.4349 782.185 24.5781 782.107 24.7344C781.873 25.2552 781.56 25.9323 781.17 26.7656C780.805 27.5729 780.336 28.3932 779.763 29.2266C779.217 30.0339 778.552 30.724 777.771 31.2969C777.016 31.8437 776.144 32.1172 775.154 32.1172ZM775.74 23.2109C776.677 22.2474 777.589 21.1406 778.474 19.8906C779.36 18.6146 780.18 17.2995 780.935 15.9453C781.717 14.5651 782.368 13.263 782.888 12.0391C783.071 11.6484 783.214 11.2187 783.318 10.75C783.448 10.2812 783.513 9.89062 783.513 9.57812C783.513 9.21354 783.422 9.03125 783.24 9.03125C783.136 9.03125 782.98 9.13542 782.771 9.34375C782.563 9.52604 782.289 9.85156 781.951 10.3203C781.456 10.9714 780.909 11.8568 780.31 12.9766C779.737 14.0964 779.151 15.2943 778.552 16.5703C777.953 17.8464 777.407 19.0833 776.912 20.2812C776.417 21.4531 776.026 22.4297 775.74 23.2109ZM784.29 32.1563C783.327 32.1563 782.454 31.8437 781.673 31.2187C780.918 30.5937 780.54 29.6432 780.54 28.3672C780.54 27.1953 780.827 25.9453 781.4 24.6172C781.973 23.263 782.702 22.0781 783.587 21.0625C784.342 20.1771 785.189 19.4479 786.126 18.875C787.064 18.3021 787.949 18.0156 788.783 18.0156C789.355 18.0156 789.85 18.1719 790.267 18.4844C790.71 18.8229 790.931 19.3047 790.931 19.9297C790.931 20.5807 790.684 21.2969 790.189 22.0781C789.694 22.8594 788.991 23.5885 788.079 24.2656C787.689 24.5521 787.194 24.8255 786.595 25.0859C785.996 25.3464 785.397 25.5677 784.798 25.75C784.199 25.9062 783.704 25.9844 783.314 25.9844C783.184 26.2969 783.053 26.7135 782.923 27.2344C782.819 27.7552 782.767 28.2891 782.767 28.8359C782.767 29.487 782.897 30.0729 783.158 30.5937C783.418 31.1146 783.9 31.375 784.603 31.375C785.462 31.375 786.243 31.1276 786.947 30.6328C787.65 30.138 788.275 29.526 788.822 28.7969C789.368 28.0417 789.824 27.2865 790.189 26.5312C790.579 25.776 790.892 25.138 791.126 24.6172C791.283 24.2526 791.491 24.0703 791.751 24.0703C791.882 24.0703 791.947 24.1354 791.947 24.2656C791.947 24.3698 791.908 24.5 791.829 24.6562C791.465 25.4375 791.074 26.2708 790.658 27.1562C790.241 28.0156 789.746 28.8359 789.173 29.6172C788.6 30.3724 787.91 30.9844 787.103 31.4531C786.322 31.9219 785.384 32.1563 784.29 32.1563ZM783.587 25.2812C783.952 25.2812 784.564 25.151 785.423 24.8906C786.283 24.6042 787.064 24.1615 787.767 23.5625C788.444 22.9635 788.965 22.3125 789.329 21.6094C789.694 20.8802 789.876 20.2682 789.876 19.7734C789.876 19.2005 789.668 18.9141 789.251 18.9141C788.939 18.9141 788.509 19.1224 787.962 19.5391C787.415 19.9557 786.738 20.6589 785.931 21.6484C785.436 22.2734 784.967 22.9505 784.525 23.6797C784.082 24.4089 783.77 24.9427 783.587 25.2812ZM795.855 32.0391C795.36 32.0391 794.865 31.8437 794.37 31.4531C793.876 31.0365 793.628 30.3724 793.628 29.4609C793.628 28.7578 793.797 27.9505 794.136 27.0391C794.448 26.1536 794.865 25.2943 795.386 24.4609C795.933 23.6276 796.323 22.9505 796.558 22.4297C796.636 22.2214 796.675 22.0391 796.675 21.8828C796.675 21.4141 796.376 21.0755 795.777 20.8672C795.204 20.6589 794.448 20.5417 793.511 20.5156L793.042 21.8047C792.756 22.638 792.352 23.6146 791.831 24.7344C791.336 25.8542 790.777 26.9349 790.152 27.9766C789.553 29.0182 788.928 29.8516 788.277 30.4766C788.224 30.5286 788.159 30.5547 788.081 30.5547C787.977 30.5547 787.912 30.4896 787.886 30.3594C787.834 30.2292 787.886 30.0729 788.042 29.8906C789.058 28.5365 789.969 27.0391 790.777 25.3984C791.584 23.7318 792.261 22.0391 792.808 20.3203C793.381 18.6016 793.797 17.013 794.058 15.5547C794.136 15.138 794.279 14.8385 794.488 14.6562C794.696 14.4479 794.917 14.3437 795.152 14.3437C795.49 14.3437 795.803 14.513 796.089 14.8516C796.376 15.1641 796.519 15.6198 796.519 16.2187C796.519 16.3229 796.506 16.4401 796.48 16.5703C796.48 16.7005 796.467 16.8307 796.441 16.9609C796.336 17.5078 796.024 18.0286 795.503 18.5234C795.008 18.9922 794.605 19.3437 794.292 19.5781C794.553 19.6042 794.826 19.6302 795.113 19.6562C795.399 19.6562 795.711 19.6562 796.05 19.6562C797.274 19.6562 798.485 19.5781 799.683 19.4219C799.735 19.5781 799.761 19.6953 799.761 19.7734C799.761 20.112 799.657 20.5417 799.448 21.0625C799.266 21.5833 799.071 22.0521 798.863 22.4687C798.758 22.7031 798.55 23.1328 798.238 23.7578C797.925 24.3568 797.586 25.0469 797.222 25.8281C796.857 26.5833 796.545 27.3385 796.284 28.0937C796.05 28.8229 795.933 29.4479 795.933 29.9687C795.933 30.6458 796.193 30.9844 796.714 30.9844C797.105 30.9844 797.534 30.737 798.003 30.2422C798.472 29.7214 798.928 29.0964 799.37 28.3672C799.839 27.612 800.256 26.8828 800.62 26.1797C801.011 25.4505 801.31 24.8776 801.519 24.4609C801.623 24.2005 801.766 24.0703 801.948 24.0703C802.053 24.0703 802.105 24.1615 802.105 24.3437C802.105 24.4479 802.066 24.6042 801.988 24.8125C801.701 25.4115 801.363 26.0885 800.972 26.8438C800.581 27.599 800.139 28.3411 799.644 29.0703C799.175 29.7995 798.654 30.4375 798.081 30.9844C797.534 31.5052 796.935 31.8437 796.284 32C796.206 32.026 796.063 32.0391 795.855 32.0391Z" fill="#333333"/>
<rect x="716.5" y="67" width="5" height="5" rx="2.5" fill="#EA1B25"/>
<rect x="676.5" y="69" width="30" height="1" fill="#EA1B25"/>
<rect x="731.5" y="69" width="30" height="1" fill="#EA1B25"/>
<path d="M673.474 109.15C672.394 109.15 671.554 108.95 670.954 108.55C670.364 108.15 669.949 107.56 669.709 106.78C669.479 105.99 669.364 105.02 669.364 103.87C669.364 102.72 669.484 101.745 669.724 100.945C669.964 100.145 670.379 99.535 670.969 99.115C671.569 98.685 672.404 98.47 673.474 98.47C674.544 98.47 675.374 98.68 675.964 99.1C676.564 99.52 676.984 100.135 677.224 100.945C677.464 101.745 677.584 102.72 677.584 103.87C677.584 105.05 677.464 106.035 677.224 106.825C676.994 107.605 676.579 108.19 675.979 108.58C675.389 108.96 674.554 109.15 673.474 109.15ZM673.474 108.085C674.264 108.085 674.864 107.935 675.274 107.635C675.684 107.335 675.964 106.875 676.114 106.255C676.264 105.625 676.339 104.83 676.339 103.87C676.339 102.94 676.259 102.155 676.099 101.515C675.949 100.865 675.669 100.375 675.259 100.045C674.849 99.705 674.254 99.535 673.474 99.535C672.694 99.535 672.099 99.705 671.689 100.045C671.279 100.375 670.994 100.86 670.834 101.5C670.684 102.14 670.609 102.93 670.609 103.87C670.609 104.8 670.684 105.58 670.834 106.21C670.984 106.83 671.264 107.3 671.674 107.62C672.084 107.93 672.684 108.085 673.474 108.085ZM681.787 109.15C681.147 109.15 680.657 109.02 680.317 108.76C679.977 108.5 679.742 108.095 679.612 107.545C679.492 106.995 679.432 106.285 679.432 105.415V101.5H680.587V105.415C680.587 106.075 680.617 106.6 680.677 106.99C680.747 107.38 680.892 107.665 681.112 107.845C681.332 108.015 681.662 108.1 682.102 108.1C682.542 108.1 682.942 108.04 683.302 107.92C683.662 107.8 683.952 107.68 684.172 107.56V101.5H685.327V109H684.172V108.475C683.852 108.655 683.502 108.815 683.122 108.955C682.752 109.085 682.307 109.15 681.787 109.15ZM687.49 109V101.5H688.645V102.505C688.835 102.375 689.075 102.235 689.365 102.085C689.655 101.925 689.975 101.775 690.325 101.635C690.675 101.495 691.025 101.395 691.375 101.335V102.52C691.035 102.59 690.69 102.685 690.34 102.805C689.99 102.915 689.665 103.035 689.365 103.165C689.075 103.295 688.835 103.41 688.645 103.51V109H687.49ZM696.166 109V98.635H699.946C700.626 98.635 701.191 98.725 701.641 98.905C702.101 99.085 702.446 99.37 702.676 99.76C702.916 100.15 703.036 100.655 703.036 101.275C703.036 101.715 702.981 102.09 702.871 102.4C702.771 102.7 702.626 102.95 702.436 103.15C702.246 103.35 702.011 103.52 701.731 103.66C702.031 103.76 702.301 103.905 702.541 104.095C702.791 104.285 702.986 104.54 703.126 104.86C703.276 105.18 703.351 105.59 703.351 106.09C703.351 106.63 703.276 107.09 703.126 107.47C702.976 107.84 702.756 108.14 702.466 108.37C702.186 108.59 701.846 108.75 701.446 108.85C701.056 108.95 700.616 109 700.126 109H696.166ZM697.366 107.95H700.081C700.501 107.95 700.861 107.895 701.161 107.785C701.471 107.675 701.711 107.485 701.881 107.215C702.051 106.935 702.136 106.545 702.136 106.045C702.136 105.655 702.061 105.34 701.911 105.1C701.771 104.86 701.591 104.68 701.371 104.56C701.151 104.44 700.921 104.36 700.681 104.32C700.441 104.28 700.221 104.26 700.021 104.26H697.366V107.95ZM697.366 103.21H700.006C700.646 103.21 701.106 103.06 701.386 102.76C701.676 102.45 701.821 101.99 701.821 101.38C701.821 100.79 701.661 100.36 701.341 100.09C701.031 99.82 700.551 99.685 699.901 99.685H697.366V103.21ZM707.87 109.15C707.12 109.15 706.525 109.005 706.085 108.715C705.655 108.425 705.345 107.995 705.155 107.425C704.965 106.855 704.87 106.145 704.87 105.295C704.87 104.345 705 103.585 705.26 103.015C705.52 102.435 705.885 102.015 706.355 101.755C706.825 101.485 707.38 101.35 708.02 101.35C709.02 101.35 709.775 101.63 710.285 102.19C710.795 102.74 711.05 103.63 711.05 104.86L710.99 105.745H706.055C706.065 106.525 706.21 107.115 706.49 107.515C706.77 107.915 707.275 108.115 708.005 108.115C708.285 108.115 708.59 108.11 708.92 108.1C709.26 108.08 709.595 108.06 709.925 108.04C710.255 108.02 710.535 108 710.765 107.98L710.795 108.895C710.555 108.935 710.26 108.975 709.91 109.015C709.57 109.055 709.22 109.085 708.86 109.105C708.5 109.135 708.17 109.15 707.87 109.15ZM706.055 104.8H709.88C709.88 103.88 709.73 103.24 709.43 102.88C709.14 102.51 708.67 102.325 708.02 102.325C707.39 102.325 706.905 102.515 706.565 102.895C706.225 103.275 706.055 103.91 706.055 104.8ZM715.128 109.15C714.898 109.15 714.618 109.135 714.288 109.105C713.968 109.075 713.648 109.04 713.328 109C713.008 108.95 712.723 108.905 712.473 108.865L712.533 107.86C712.783 107.89 713.063 107.925 713.373 107.965C713.693 108.005 714.003 108.04 714.303 108.07C714.603 108.09 714.843 108.1 715.023 108.1C715.433 108.1 715.773 108.065 716.043 107.995C716.313 107.915 716.518 107.785 716.658 107.605C716.798 107.425 716.868 107.17 716.868 106.84C716.868 106.59 716.813 106.395 716.703 106.255C716.603 106.115 716.408 106 716.118 105.91C715.838 105.82 715.428 105.735 714.888 105.655C714.328 105.565 713.858 105.455 713.478 105.325C713.108 105.185 712.833 104.98 712.653 104.71C712.473 104.44 712.383 104.055 712.383 103.555C712.383 102.995 712.513 102.555 712.773 102.235C713.033 101.915 713.368 101.69 713.778 101.56C714.198 101.42 714.633 101.35 715.083 101.35C715.363 101.35 715.668 101.365 715.998 101.395C716.338 101.425 716.668 101.465 716.988 101.515C717.308 101.555 717.583 101.595 717.813 101.635L717.783 102.64C717.543 102.6 717.263 102.565 716.943 102.535C716.623 102.495 716.303 102.465 715.983 102.445C715.663 102.415 715.383 102.4 715.143 102.4C714.843 102.4 714.573 102.435 714.333 102.505C714.093 102.565 713.903 102.675 713.763 102.835C713.623 102.995 713.553 103.22 713.553 103.51C713.553 103.73 713.603 103.91 713.703 104.05C713.803 104.18 713.993 104.29 714.273 104.38C714.553 104.47 714.958 104.56 715.488 104.65C716.108 104.75 716.603 104.875 716.973 105.025C717.353 105.175 717.628 105.385 717.798 105.655C717.968 105.925 718.053 106.305 718.053 106.795C718.053 107.675 717.793 108.29 717.273 108.64C716.753 108.98 716.038 109.15 715.128 109.15ZM722.235 109.165C721.715 109.165 721.3 109.085 720.99 108.925C720.69 108.765 720.475 108.49 720.345 108.1C720.215 107.7 720.15 107.14 720.15 106.42V102.505H719.085V101.5H720.15V99.205H721.305V101.5H723.66V102.505H721.305V106.075C721.305 106.605 721.325 107.02 721.365 107.32C721.415 107.61 721.515 107.815 721.665 107.935C721.815 108.055 722.05 108.115 722.37 108.115C722.47 108.115 722.6 108.11 722.76 108.1C722.92 108.09 723.08 108.08 723.24 108.07C723.41 108.05 723.56 108.035 723.69 108.025L723.765 109C723.545 109.03 723.285 109.065 722.985 109.105C722.685 109.145 722.435 109.165 722.235 109.165ZM728.51 109V98.635H732.215C732.975 98.635 733.605 98.76 734.105 99.01C734.605 99.25 735 99.595 735.29 100.045C735.58 100.485 735.785 101.015 735.905 101.635C736.025 102.245 736.085 102.92 736.085 103.66C736.085 104.41 736.025 105.11 735.905 105.76C735.795 106.4 735.595 106.965 735.305 107.455C735.015 107.945 734.62 108.325 734.12 108.595C733.62 108.865 732.985 109 732.215 109H728.51ZM729.71 107.935H732.215C732.755 107.935 733.195 107.82 733.535 107.59C733.875 107.36 734.14 107.045 734.33 106.645C734.52 106.245 734.65 105.79 734.72 105.28C734.8 104.77 734.84 104.23 734.84 103.66C734.84 103.1 734.8 102.58 734.72 102.1C734.65 101.62 734.52 101.2 734.33 100.84C734.14 100.48 733.875 100.2 733.535 100C733.195 99.8 732.755 99.7 732.215 99.7H729.71V107.935ZM737.983 109V101.5H739.138V109H737.983ZM737.983 99.85V98.5H739.138V99.85H737.983ZM743.634 109.15C743.404 109.15 743.124 109.135 742.794 109.105C742.474 109.075 742.154 109.04 741.834 109C741.514 108.95 741.229 108.905 740.979 108.865L741.039 107.86C741.289 107.89 741.569 107.925 741.879 107.965C742.199 108.005 742.509 108.04 742.809 108.07C743.109 108.09 743.349 108.1 743.529 108.1C743.939 108.1 744.279 108.065 744.549 107.995C744.819 107.915 745.024 107.785 745.164 107.605C745.304 107.425 745.374 107.17 745.374 106.84C745.374 106.59 745.319 106.395 745.209 106.255C745.109 106.115 744.914 106 744.624 105.91C744.344 105.82 743.934 105.735 743.394 105.655C742.834 105.565 742.364 105.455 741.984 105.325C741.614 105.185 741.339 104.98 741.159 104.71C740.979 104.44 740.889 104.055 740.889 103.555C740.889 102.995 741.019 102.555 741.279 102.235C741.539 101.915 741.874 101.69 742.284 101.56C742.704 101.42 743.139 101.35 743.589 101.35C743.869 101.35 744.174 101.365 744.504 101.395C744.844 101.425 745.174 101.465 745.494 101.515C745.814 101.555 746.089 101.595 746.319 101.635L746.289 102.64C746.049 102.6 745.769 102.565 745.449 102.535C745.129 102.495 744.809 102.465 744.489 102.445C744.169 102.415 743.889 102.4 743.649 102.4C743.349 102.4 743.079 102.435 742.839 102.505C742.599 102.565 742.409 102.675 742.269 102.835C742.129 102.995 742.059 103.22 742.059 103.51C742.059 103.73 742.109 103.91 742.209 104.05C742.309 104.18 742.499 104.29 742.779 104.38C743.059 104.47 743.464 104.56 743.994 104.65C744.614 104.75 745.109 104.875 745.479 105.025C745.859 105.175 746.134 105.385 746.304 105.655C746.474 105.925 746.559 106.305 746.559 106.795C746.559 107.675 746.299 108.29 745.779 108.64C745.259 108.98 744.544 109.15 743.634 109.15ZM748.281 109V98.245H749.436V101.905C749.696 101.785 750.041 101.665 750.471 101.545C750.911 101.415 751.331 101.35 751.731 101.35C752.421 101.35 752.946 101.475 753.306 101.725C753.676 101.965 753.926 102.355 754.056 102.895C754.196 103.435 754.266 104.145 754.266 105.025V109H753.096V105.07C753.096 104.42 753.056 103.9 752.976 103.51C752.906 103.12 752.761 102.84 752.541 102.67C752.321 102.49 751.981 102.4 751.521 102.4C751.141 102.4 750.756 102.45 750.366 102.55C749.976 102.65 749.666 102.745 749.436 102.835V109H748.281ZM759.007 109.15C758.257 109.15 757.662 109.005 757.222 108.715C756.792 108.425 756.482 107.995 756.292 107.425C756.102 106.855 756.007 106.145 756.007 105.295C756.007 104.345 756.137 103.585 756.397 103.015C756.657 102.435 757.022 102.015 757.492 101.755C757.962 101.485 758.517 101.35 759.157 101.35C760.157 101.35 760.912 101.63 761.422 102.19C761.932 102.74 762.187 103.63 762.187 104.86L762.127 105.745H757.192C757.202 106.525 757.347 107.115 757.627 107.515C757.907 107.915 758.412 108.115 759.142 108.115C759.422 108.115 759.727 108.11 760.057 108.1C760.397 108.08 760.732 108.06 761.062 108.04C761.392 108.02 761.672 108 761.902 107.98L761.932 108.895C761.692 108.935 761.397 108.975 761.047 109.015C760.707 109.055 760.357 109.085 759.997 109.105C759.637 109.135 759.307 109.15 759.007 109.15ZM757.192 104.8H761.017C761.017 103.88 760.867 103.24 760.567 102.88C760.277 102.51 759.807 102.325 759.157 102.325C758.527 102.325 758.042 102.515 757.702 102.895C757.362 103.275 757.192 103.91 757.192 104.8ZM766.265 109.15C766.035 109.15 765.755 109.135 765.425 109.105C765.105 109.075 764.785 109.04 764.465 109C764.145 108.95 763.86 108.905 763.61 108.865L763.67 107.86C763.92 107.89 764.2 107.925 764.51 107.965C764.83 108.005 765.14 108.04 765.44 108.07C765.74 108.09 765.98 108.1 766.16 108.1C766.57 108.1 766.91 108.065 767.18 107.995C767.45 107.915 767.655 107.785 767.795 107.605C767.935 107.425 768.005 107.17 768.005 106.84C768.005 106.59 767.95 106.395 767.84 106.255C767.74 106.115 767.545 106 767.255 105.91C766.975 105.82 766.565 105.735 766.025 105.655C765.465 105.565 764.995 105.455 764.615 105.325C764.245 105.185 763.97 104.98 763.79 104.71C763.61 104.44 763.52 104.055 763.52 103.555C763.52 102.995 763.65 102.555 763.91 102.235C764.17 101.915 764.505 101.69 764.915 101.56C765.335 101.42 765.77 101.35 766.22 101.35C766.5 101.35 766.805 101.365 767.135 101.395C767.475 101.425 767.805 101.465 768.125 101.515C768.445 101.555 768.72 101.595 768.95 101.635L768.92 102.64C768.68 102.6 768.4 102.565 768.08 102.535C767.76 102.495 767.44 102.465 767.12 102.445C766.8 102.415 766.52 102.4 766.28 102.4C765.98 102.4 765.71 102.435 765.47 102.505C765.23 102.565 765.04 102.675 764.9 102.835C764.76 102.995 764.69 103.22 764.69 103.51C764.69 103.73 764.74 103.91 764.84 104.05C764.94 104.18 765.13 104.29 765.41 104.38C765.69 104.47 766.095 104.56 766.625 104.65C767.245 104.75 767.74 104.875 768.11 105.025C768.49 105.175 768.765 105.385 768.935 105.655C769.105 105.925 769.19 106.305 769.19 106.795C769.19 107.675 768.93 108.29 768.41 108.64C767.89 108.98 767.175 109.15 766.265 109.15Z" fill="#757575"/>
</svg>
